<?xml version="1.0" encoding="UTF-8"?>
<svg id="Layer_1" xmlns="http://www.w3.org/2000/svg" version="1.1" viewBox="0 0 890.3 890.3">
  <!-- Generator: Adobe Illustrator 30.2.1, SVG Export Plug-In . SVG Version: 2.1.1 Build 1)  -->
  <defs>
    <style>
      .st0 {
        fill: #9b9b9b;
      }
    </style>
  </defs>
  <path class="st0" d="M656.4,86.9h-47.8v-47.8c0-21.6-17.5-39.1-39.1-39.1s-39.1,17.5-39.1,39.1v47.8h-78.3v-47.8c0-21.6-17.5-39.1-39.1-39.1s-39.1,17.5-39.1,39.1v47.8h-78.3v-47.8c0-21.6-17.5-39.1-39.1-39.1s-39.1,17.5-39.1,39.1v47.8h-78.3v-47.8C139.1,17.5,121.5,0,100,0s-39.1,17.5-39.1,39.1v47.8H13c-7.2,0-13,5.8-13,13v777.2c0,7.2,5.8,13,13,13h643.4c7.2,0,13-5.8,13-13V100c0-7.2-5.9-13-13.1-13h0ZM556.4,39.1c0-7.2,5.9-13,13-13s13,5.9,13,13v47.8h-26.1v-47.8ZM399.9,39.1c0-7.2,5.9-13,13-13s13,5.9,13,13v47.8h-26.1v-47.8ZM243.4,39.1c0-7.2,5.9-13,13-13s13,5.9,13,13v47.8h-26.1v-47.8ZM86.9,39.1c0-7.2,5.9-13,13-13s13,5.9,13,13v47.8h-26.1v-47.8ZM643.4,113v60.9H26.1s0-60.8,0-60.8h617.3ZM26.1,864.2V200h617.3v664.2H26.1Z"/>
  <path class="st0" d="M204.3,243.4h-121.7c-7.2,0-13,5.8-13,13v121.7c0,7.2,5.8,13,13,13h121.7c7.2,0,13-5.8,13-13v-121.7c0-7.2-5.8-13-13-13h0ZM191.3,365.1h-95.6v-95.6h95.6v95.6Z"/>
  <path class="st0" d="M586.8,295.6h-243.4c-7.2,0-13,5.8-13,13s5.8,13,13,13h243.4c7.2,0,13-5.8,13-13s-5.8-13-13-13h0Z"/>
  <path class="st0" d="M273.8,321.7h17.4c7.2,0,13-5.8,13-13s-5.8-13-13-13h-17.4c-7.2,0-13,5.8-13,13s5.8,13,13,13Z"/>
  <path class="st0" d="M586.8,365.1h-313c-7.2,0-13,5.8-13,13s5.8,13,13,13h313c7.2,0,13-5.8,13-13,0-7.2-5.8-13-13-13h0Z"/>
  <path class="st0" d="M204.3,458.2h-121.7c-7.2,0-13,5.8-13,13v121.7c0,7.2,5.8,13,13,13h121.7c7.2,0,13-5.8,13-13v-121.7c0-7.2-5.8-13-13-13ZM191.3,579.9h-95.6v-95.6h95.6v95.6Z"/>
  <path class="st0" d="M586.8,510.3h-243.4c-7.2,0-13,5.8-13,13s5.8,13,13,13h243.4c7.2,0,13-5.8,13-13s-5.8-13-13-13h0Z"/>
  <path class="st0" d="M273.8,536.4h17.4c7.2,0,13-5.8,13-13s-5.8-13-13-13h-17.4c-7.2,0-13,5.8-13,13s5.8,13,13,13Z"/>
  <path class="st0" d="M586.8,579.9h-313c-7.2,0-13,5.8-13,13s5.8,13,13,13h313c7.2,0,13-5.8,13-13,0-7.2-5.8-13-13-13h0Z"/>
  <path class="st0" d="M204.3,672.9h-121.7c-7.2,0-13,5.8-13,13v121.7c0,7.2,5.8,13,13,13h121.7c7.2,0,13-5.8,13-13v-121.7c0-7.2-5.8-13-13-13ZM191.3,794.6h-95.6v-95.6h95.6v95.6Z"/>
  <path class="st0" d="M586.8,725.1h-243.4c-7.2,0-13,5.8-13,13s5.8,13,13,13h243.4c7.2,0,13-5.8,13-13s-5.8-13-13-13h0Z"/>
  <path class="st0" d="M273.8,751.2h17.4c7.2,0,13-5.8,13-13s-5.8-13-13-13h-17.4c-7.2,0-13,5.8-13,13s5.8,13,13,13Z"/>
  <path class="st0" d="M586.8,794.6h-313c-7.2,0-13,5.8-13,13s5.8,13,13,13h313c7.2,0,13-5.8,13-13,0-7.2-5.8-13-13-13h0Z"/>
  <path class="st0" d="M842.4,99.1h-34.8c-26.4,0-47.8,21.5-47.8,47.8v660.8c0,2.8.9,5.6,2.6,7.8l52.2,69.5c2.5,3.3,6.3,5.2,10.4,5.2s8-1.9,10.4-5.2l52.2-69.5c1.7-2.3,2.6-5,2.6-7.8V146.9c0-26.4-21.4-47.8-47.8-47.8h0ZM838.1,774.1V229.5h26.1v552.8c-8.3-4.2-17.1-6.9-26.1-8.3h0ZM812,774.1c-9,1.4-17.8,4.1-26.1,8.3V229.5s26.1,0,26.1,0v544.5ZM807.7,125.2h34.8c12,0,21.7,9.7,21.7,21.7v56.5h-78.3v-56.5c0-12,9.8-21.7,21.7-21.7h0ZM825.1,855.5l-34.3-45.7c20.6-14.1,48-14.1,68.6,0l-34.3,45.7Z"/>
</svg>