<?xml version="1.0" encoding="UTF-8"?>
<svg id="Layer_1" xmlns="http://www.w3.org/2000/svg" version="1.1" viewBox="0 0 991 890.2">
  <!-- Generator: Adobe Illustrator 30.2.1, SVG Export Plug-In . SVG Version: 2.1.1 Build 1)  -->
  <defs>
    <style>
      .st0 {
        fill: #9b9b9b;
      }
    </style>
  </defs>
  <path class="st0" d="M742.8,86.9h-47.8v-47.8C695,17.5,677.5,0,655.9,0s-39.1,17.5-39.1,39.1v47.8h-107.1v-47.8C509.7,17.5,492.2,0,470.6,0s-39.1,17.5-39.1,39.1v47.8h-107.1v-47.8C324.4,17.5,306.9,0,285.3,0s-39.1,17.5-39.1,39.1v47.8h-107.1v-47.8c0-21.6-17.6-39.1-39.1-39.1s-39.1,17.5-39.1,39.1v47.8H13c-7.2,0-13,5.8-13,13v777.2c0,7.2,5.8,13,13,13h729.8c7.2,0,13-5.8,13-13V100c0-7.2-5.9-13-13.1-13h0ZM642.8,39.1c0-7.2,5.9-13,13-13s13,5.9,13,13v47.8h-26.1v-47.8h0ZM457.5,39.1c0-7.2,5.9-13,13-13s13,5.9,13,13v47.8h-26.1v-47.8h.1ZM272.2,39.1c0-7.2,5.9-13,13-13s13,5.9,13,13v47.8h-26.1v-47.8h.1ZM86.9,39.1c0-7.2,5.9-13,13-13s13,5.9,13,13v47.8h-26.1v-47.8h0ZM729.8,113v60.9H26.1v-60.8h703.7ZM26.1,864.2V200h703.7v664.2H26.1Z"/>
  <path class="st0" d="M233.1,243.4H82.6c-7.2,0-13,5.8-13,13v121.7c0,7.2,5.8,13,13,13h150.5c7.2,0,13-5.8,13-13v-121.7c0-7.2-5.8-13-13-13h0ZM220.1,365.1h-124.4v-95.6h124.4v95.6Z"/>
  <path class="st0" d="M673.2,295.6h-301c-7.2,0-13,5.8-13,13s5.8,13,13,13h301c7.2,0,13-5.8,13-13s-5.8-13-13-13h0Z"/>
  <path class="st0" d="M302.6,321.7h17.4c7.2,0,13-5.8,13-13s-5.8-13-13-13h-17.4c-7.2,0-13,5.8-13,13s5.8,13,13,13Z"/>
  <path class="st0" d="M673.2,365.1h-370.6c-7.2,0-13,5.8-13,13s5.8,13,13,13h370.6c7.2,0,13-5.8,13-13s-5.8-13-13-13h0Z"/>
  <path class="st0" d="M233.1,458.2H82.6c-7.2,0-13,5.8-13,13v121.7c0,7.2,5.8,13,13,13h150.5c7.2,0,13-5.8,13-13v-121.7c0-7.2-5.8-13-13-13ZM220.1,579.9h-124.4v-95.6h124.4v95.6Z"/>
  <path class="st0" d="M673.2,510.3h-301c-7.2,0-13,5.8-13,13s5.8,13,13,13h301c7.2,0,13-5.8,13-13s-5.8-13-13-13h0Z"/>
  <path class="st0" d="M302.6,536.4h17.4c7.2,0,13-5.8,13-13s-5.8-13-13-13h-17.4c-7.2,0-13,5.8-13,13s5.8,13,13,13Z"/>
  <path class="st0" d="M673.2,579.9h-370.6c-7.2,0-13,5.8-13,13s5.8,13,13,13h370.6c7.2,0,13-5.8,13-13s-5.8-13-13-13h0Z"/>
  <path class="st0" d="M233.1,672.9H82.6c-7.2,0-13,5.8-13,13v121.7c0,7.2,5.8,13,13,13h150.5c7.2,0,13-5.8,13-13v-121.7c0-7.2-5.8-13-13-13ZM220.1,794.6h-124.4v-95.6h124.4v95.6Z"/>
  <path class="st0" d="M673.2,725.1h-301c-7.2,0-13,5.8-13,13s5.8,13,13,13h301c7.2,0,13-5.8,13-13s-5.8-13-13-13h0Z"/>
  <path class="st0" d="M302.6,751.2h17.4c7.2,0,13-5.8,13-13s-5.8-13-13-13h-17.4c-7.2,0-13,5.8-13,13s5.8,13,13,13Z"/>
  <path class="st0" d="M673.2,794.6h-370.6c-7.2,0-13,5.8-13,13s5.8,13,13,13h370.6c7.2,0,13-5.8,13-13s-5.8-13-13-13h0Z"/>
  <path class="st0" d="M943.2,99.1h-34.8c-26.4,0-47.8,21.5-47.8,47.8v660.8c0,2.8.9,5.6,2.6,7.8l52.2,69.5c2.5,3.3,6.3,5.2,10.4,5.2s8-1.9,10.4-5.2l52.2-69.5c1.7-2.3,2.6-5,2.6-7.8V146.9c0-26.4-21.4-47.8-47.8-47.8h0ZM938.9,774.1V229.5h26.1v552.8c-8.3-4.2-17.1-6.9-26.1-8.3h0ZM912.8,774.1c-9,1.4-17.8,4.1-26.1,8.3V229.5h26.1v544.5h0ZM908.5,125.2h34.8c12,0,21.7,9.7,21.7,21.7v56.5h-78.3v-56.5c0-12,9.8-21.7,21.7-21.7h0ZM925.9,855.5l-34.3-45.7c20.6-14.1,48-14.1,68.6,0l-34.3,45.7Z"/>
</svg>