<?xml version="1.0" encoding="UTF-8"?>
<svg id="Layer_1" xmlns="http://www.w3.org/2000/svg" version="1.1" viewBox="0 0 1200 1200">
  <!-- Generator: Adobe Illustrator 30.2.1, SVG Export Plug-In . SVG Version: 2.1.1 Build 1)  -->
  <defs>
    <style>
      .st0 {
        fill: #9b9a99;
      }
    </style>
  </defs>
  <path class="st0" d="M600,663.9c18.3,0,156.2-142.7,156.2-247.9s-70.1-156.2-156.2-156.2-156.2,70.1-156.2,156.2,138,247.9,156.2,247.9ZM600,286.7c71.3,0,129.4,58,129.4,129.4s-98.2,187.9-129.5,216.9c-30-27.7-129.2-132.2-129.2-216.9s58-129.4,129.3-129.4h0Z"/>
  <path class="st0" d="M676.2,411.4c0-42-34.2-76.2-76.2-76.2s-76.2,34.2-76.2,76.2,34.2,76.2,76.2,76.2,76.2-34.2,76.2-76.2ZM550.6,411.4c0-27.2,22.1-49.4,49.4-49.4s49.4,22.1,49.4,49.4-22.1,49.4-49.4,49.4c-27.2,0-49.4-22.2-49.4-49.4Z"/>
  <path class="st0" d="M888.9,42H311.1c-47.1,0-85.4,38.3-85.4,85.4v945.2c0,47.1,38.3,85.4,85.4,85.4h577.8c47.1,0,85.4-38.3,85.4-85.4V127.4c0-47.1-38.3-85.3-85.4-85.3h0ZM947.4,1072.5c0,32.3-26.2,58.5-58.5,58.5H311.1c-32.3,0-58.5-26.2-58.5-58.5V127.3c0-32.2,26.2-58.5,58.5-58.5h577.8c32.2,0,58.5,26.2,58.5,58.5v945.2Z"/>
  <path class="st0" d="M709.7,1030.3h-219.5c-7.4,0-13.5,6-13.5,13.5s6,13.5,13.5,13.5h219.5c7.4,0,13.5-6,13.5-13.5s-6-13.5-13.5-13.5Z"/>
  <path class="st0" d="M749.5,952.3h-299.1c-7.4,0-13.5,6-13.5,13.5s6,13.5,13.5,13.5h299.1c7.4,0,13.5-6,13.5-13.5s-6-13.5-13.5-13.5Z"/>
  <path class="st0" d="M814.5,874.3h-429.1c-7.4,0-13.5,6-13.5,13.5s6,13.5,13.5,13.5h429.1c7.4,0,13.5-6,13.5-13.5,0-7.4-6.1-13.5-13.5-13.5h0Z"/>
  <path class="st0" d="M532.8,666c-7.4,0-13.5,6-13.5,13.5s6,13.5,13.5,13.5h134.4c7.4,0,13.5-6,13.5-13.5s-6-13.5-13.5-13.5h-134.4Z"/>
</svg>