<?xml version="1.0" encoding="UTF-8"?>
<svg width="1200pt" height="1200pt" version="1.1" viewBox="0 0 1200 1200" xmlns="http://www.w3.org/2000/svg">
 <path d="m811.27 241.8h-47.812v-47.812c0-21.574-17.547-39.121-39.121-39.121s-39.121 17.547-39.121 39.121v47.812h-78.254v-47.812c0-21.574-17.547-39.121-39.121-39.121-21.574 0-39.121 17.547-39.121 39.121v47.812h-78.254v-47.812c0-21.574-17.547-39.121-39.121-39.121-21.574 0-39.121 17.547-39.121 39.121v47.812h-78.254v-47.812c0-21.574-17.547-39.121-39.121-39.121s-39.121 17.547-39.121 39.121v47.812h-47.812c-7.1992 0-13.039 5.8398-13.039 13.039v777.25c0 7.1992 5.8398 13.039 13.039 13.039h643.38c7.1992 0 13.039-5.8398 13.039-13.039l0.007812-777.25c-0.023437-7.1992-5.8672-13.039-13.066-13.039zm-99.984-47.812c0-7.1875 5.8516-13.039 13.039-13.039s13.039 5.8516 13.039 13.039v47.812h-26.078zm-156.5 0c0-7.1875 5.8516-13.039 13.039-13.039s13.039 5.8516 13.039 13.039v47.812h-26.078zm-156.49 0c0-7.1875 5.8516-13.039 13.039-13.039s13.039 5.8516 13.039 13.039v47.812h-26.078zm-156.49 0c0-7.1875 5.8516-13.039 13.039-13.039s13.039 5.8516 13.039 13.039v47.812h-26.078zm556.43 73.891v60.852l-617.28 0.003906v-60.852zm-617.28 751.18v-664.23h617.28v664.24h-617.28z" fill="#9b9b9b"/>
 <path d="m359.17 398.29h-121.72c-7.1992 0-13.039 5.8398-13.039 13.039v121.72c0 7.1992 5.8398 13.039 13.039 13.039h121.72c7.1992 0 13.039-5.8398 13.039-13.039l0.003906-121.72c0-7.1992-5.8398-13.039-13.043-13.039zm-13.039 121.72h-95.641v-95.641h95.641z" fill="#9b9b9b"/>
 <path d="m741.72 450.46h-243.44c-7.1992 0-13.039 5.8398-13.039 13.039 0 7.1992 5.8398 13.039 13.039 13.039h243.44c7.1992 0 13.039-5.8398 13.039-13.039 0-7.2109-5.8398-13.039-13.043-13.039z" fill="#9b9b9b"/>
 <path d="m428.72 476.55h17.387c7.1992 0 13.039-5.8398 13.039-13.039 0-7.1992-5.8398-13.039-13.039-13.039h-17.387c-7.1992 0-13.039 5.8398-13.039 13.039 0 7.1992 5.8398 13.039 13.039 13.039z" fill="#9b9b9b"/>
 <path d="m741.72 520.01h-313c-7.1992 0-13.039 5.8398-13.039 13.039s5.8398 13.039 13.039 13.039h312.99c7.1992 0 13.039-5.8398 13.039-13.039 0.015625-7.1992-5.8242-13.039-13.027-13.039z" fill="#9b9b9b"/>
 <path d="m359.17 613.04h-121.72c-7.1992 0-13.039 5.8398-13.039 13.039v121.72c0 7.1992 5.8398 13.039 13.039 13.039h121.72c7.1992 0 13.039-5.8398 13.039-13.039v-121.72c0.003906-7.1992-5.8359-13.039-13.039-13.039zm-13.039 121.72h-95.641v-95.641h95.641z" fill="#9b9b9b"/>
 <path d="m741.72 665.2h-243.44c-7.1992 0-13.039 5.8398-13.039 13.039s5.8398 13.039 13.039 13.039h243.44c7.1992 0 13.039-5.8398 13.039-13.039s-5.8398-13.039-13.043-13.039z" fill="#9b9b9b"/>
 <path d="m428.72 691.29h17.387c7.1992 0 13.039-5.8398 13.039-13.039 0-7.1992-5.8398-13.039-13.039-13.039h-17.387c-7.1992 0-13.039 5.8398-13.039 13.039 0 7.1992 5.8398 13.039 13.039 13.039z" fill="#9b9b9b"/>
 <path d="m741.72 734.76h-313c-7.1992 0-13.039 5.8398-13.039 13.039s5.8398 13.039 13.039 13.039h312.99c7.1992 0 13.039-5.8398 13.039-13.039 0.015625-7.1992-5.8242-13.039-13.027-13.039z" fill="#9b9b9b"/>
 <path d="m359.17 827.79h-121.72c-7.1992 0-13.039 5.8398-13.039 13.039v121.72c0 7.1992 5.8398 13.039 13.039 13.039h121.72c7.1992 0 13.039-5.8398 13.039-13.039v-121.72c0.003906-7.1992-5.8359-13.039-13.039-13.039zm-13.039 121.72h-95.641v-95.641h95.641z" fill="#9b9b9b"/>
 <path d="m741.72 879.95h-243.44c-7.1992 0-13.039 5.8398-13.039 13.039s5.8398 13.039 13.039 13.039h243.44c7.1992 0 13.039-5.8398 13.039-13.039s-5.8398-13.039-13.043-13.039z" fill="#9b9b9b"/>
 <path d="m428.72 906.04h17.387c7.1992 0 13.039-5.8398 13.039-13.039s-5.8398-13.039-13.039-13.039h-17.387c-7.1992 0-13.039 5.8398-13.039 13.039s5.8398 13.039 13.039 13.039z" fill="#9b9b9b"/>
 <path d="m741.72 949.51h-313c-7.1992 0-13.039 5.8398-13.039 13.039s5.8398 13.039 13.039 13.039h312.99c7.1992 0 13.039-5.8398 13.039-13.039 0.015625-7.1992-5.8242-13.039-13.027-13.039z" fill="#9b9b9b"/>
 <path d="m997.32 253.97h-34.773c-26.375 0-47.812 21.453-47.812 47.812v660.76c0 2.8281 0.92188 5.5742 2.6133 7.8281l52.16 69.547c2.4648 3.2812 6.332 5.2148 10.426 5.2148s7.9727-1.9336 10.426-5.2148l52.16-69.547c1.6914-2.2539 2.6133-5 2.6133-7.8281v-660.76c0.015626-26.359-21.441-47.812-47.812-47.812zm-4.3477 674.95v-544.54h26.078v552.84c-8.2773-4.1719-17.09-6.9453-26.078-8.3047zm-26.078 0c-8.9883 1.3594-17.801 4.1328-26.078 8.3086l-0.003906-552.84h26.078zm-4.3477-648.87h34.773c11.988 0 21.734 9.7461 21.734 21.734v56.508h-78.254v-56.508c0.011719-11.988 9.7578-21.734 21.746-21.734zm17.387 730.3-34.309-45.746c20.602-14.121 48.027-14.121 68.625 0z" fill="#9b9b9b"/>
</svg>
